<svg xmlns="http://www.w3.org/2000/svg" version="1.1" xmlns:xlink="http://www.w3.org/1999/xlink" width="512" height="512" x="0" y="0" viewBox="0 0 512 512.001" style="enable-background:new 0 0 512 512" xml:space="preserve"><g><path fill="#73D98B" d="M388.3 432.734c2.122.801 2.641 3.559.97 5.094-29.946 27.48-64.793 49.766-102.907 62.863-57.406 19.743-130.449 16.133-164.941-41.296-9.547-15.891-14.66-34.082-16.356-52.465-18.382-1.692-36.574-6.805-52.46-16.352-57.43-34.496-61.04-107.535-41.297-164.941 13.097-38.114 35.382-72.961 62.859-102.91 1.535-1.672 4.293-1.153 5.098.972 20.058 52.903 49.046 84.813 50.98 86.895.176.207.363.394.547.578 7.64 7.64 20.008 7.933 28.004.539 8.2-7.574 8.691-20.356 1.113-28.55-.453-.497-32.332-35.606-49.129-92.673a3.074 3.074 0 0 1 .996-3.23A363.22 363.22 0 0 1 126.75 75.64c17.793-13.09 36.574-24.278 56.102-33.707 1.882-.91 4.105.328 4.332 2.406 5.375 48.7 20.757 81.473 21.875 83.812a20.178 20.178 0 0 0 3.93 5.559c5.894 5.894 15.085 7.73 23.027 3.922 10.066-4.82 14.308-16.895 9.48-26.957-.254-.531-16.254-34.656-19.207-84.149a3.056 3.056 0 0 1 2.078-3.074c26.672-8.93 54.301-15.113 82.371-18.863a3.046 3.046 0 0 1 3.438 2.836c2.047 34.61 9.21 57.594 9.847 59.59 1 3.117 2.758 5.843 5 8.047 5.23 5.128 13.133 7.37 20.434 5.027 10.617-3.414 16.477-14.774 13.055-25.399-.063-.214-6.34-20.425-7.98-50.964a3.058 3.058 0 0 1 2.91-3.23c48.011-2.04 96.433 2.288 142.726 11.335 9.047 46.293 13.371 94.715 11.336 142.727a3.058 3.058 0 0 1-3.23 2.91c-30.54-1.64-50.75-7.918-50.965-7.98-10.625-3.423-21.985 2.433-25.399 13.05-2.344 7.305-.101 15.207 5.027 20.434 2.204 2.246 4.93 4.004 8.047 5.004 1.996.636 24.977 7.8 59.59 9.847a3.046 3.046 0 0 1 2.836 3.438c-3.754 28.07-9.937 55.695-18.863 82.37a3.068 3.068 0 0 1-3.074 2.079c-49.493-2.957-83.618-18.953-84.153-19.207-10.058-4.828-22.133-.586-26.957 9.48-3.808 7.938-1.968 17.133 3.922 23.028a20.237 20.237 0 0 0 5.559 3.93c2.343 1.117 35.113 16.495 83.816 21.874 2.074.227 3.313 2.454 2.406 4.332-9.433 19.528-20.62 38.313-33.707 56.102a370.149 370.149 0 0 1-11.617 14.973 3.083 3.083 0 0 1-3.234.996c-57.067-16.797-92.176-48.676-92.668-49.13-8.195-7.577-20.977-7.085-28.55 1.114-7.395 7.996-7.103 20.363.534 28 .184.188.371.375.578.55 2.086 1.93 33.996 30.923 86.899 50.981zm0 0" opacity="1" data-original="#73d98b"></path><g fill="#00C756"><path d="M500.168 11.832a654.959 654.959 0 0 0-28.945-4.977c9.101 46.81 13.453 95.75 11.39 144.278-.07 1.726-1.554 3.047-3.277 2.957-.734-.04-1.457-.086-2.18-.13a264.684 264.684 0 0 0 31.117 3.509c1.7.094 3.16-1.211 3.23-2.906 2.036-48.016-2.288-96.438-11.335-142.731zM504.574 197.824a306.05 306.05 0 0 1-22.77-2.199 3.026 3.026 0 0 1 .884 2.547c-3.754 28.066-9.938 55.695-18.864 82.367a3.059 3.059 0 0 1-3.074 2.078 270.04 270.04 0 0 1-4.871-.336 269.822 269.822 0 0 0 29.598 3.426 3.053 3.053 0 0 0 3.07-2.074c8.93-26.676 15.113-54.301 18.863-82.371a3.044 3.044 0 0 0-2.836-3.438zM467.66 324.813a309.443 309.443 0 0 1-26.16-4.028 3.037 3.037 0 0 1-.277 1.149c-9.434 19.53-20.621 38.312-33.707 56.105a366.024 366.024 0 0 1-11.137 14.363 262.892 262.892 0 0 0 25.133 8.817 3.079 3.079 0 0 0 3.23-.996 367.43 367.43 0 0 0 11.617-14.973c13.086-17.793 24.274-36.574 33.707-56.102.91-1.882-.328-4.105-2.406-4.336zM388.3 432.734a309.073 309.073 0 0 1-24.937-10.75c-28.73 25.29-61.718 45.77-97.601 58.102-45.246 15.562-100.2 16.61-138.34-11.758 36.441 48.813 104.672 51.024 158.941 32.363 38.114-13.097 72.961-35.382 102.907-62.863 1.671-1.535 1.156-4.293-.97-5.094zm0 0" fill="#00C756" opacity="1" data-original="#00c756"></path></g><path fill="#B9EBC2" d="M308.969 314.348c8.07 2.226 16.414-2.508 18.644-10.578 2.227-8.07-2.511-16.415-10.578-18.641l-51.87-14.317 51.065-54.257 70.95 19.582c8.07 2.226 16.418-2.508 18.644-10.578 2.227-8.07-2.508-16.414-10.578-18.645l-55.52-15.324 49.942-53.067c4.246-4.507 4.14-11.574-.238-15.953-4.38-4.375-11.446-4.484-15.953-.242l-53.067 49.945-15.328-55.52c-2.227-8.07-10.57-12.804-18.64-10.577-8.067 2.226-12.805 10.574-10.579 18.64l19.582 70.954-54.257 51.066-14.317-51.871c-2.226-8.067-10.574-12.805-18.64-10.578-8.07 2.226-12.805 10.574-10.579 18.644l18.575 67.297-54.258 51.067-13.309-48.22c-2.226-8.066-10.574-12.804-18.64-10.577-8.07 2.226-12.805 10.574-10.579 18.644l17.567 63.645L5.128 469.012c-6.694 6.3-6.855 16.886-.355 23.386l14.829 14.829c6.5 6.5 17.086 6.34 23.386-.352l124.125-131.883 63.645 17.57c8.07 2.223 16.418-2.511 18.644-10.578 2.227-8.07-2.511-16.418-10.578-18.644l-48.219-13.309 51.067-54.258zm0 0" opacity="1" data-original="#b9ebc2"></path></g></svg>