<svg xmlns="http://www.w3.org/2000/svg" version="1.1" xmlns:xlink="http://www.w3.org/1999/xlink" width="512" height="512" x="0" y="0" viewBox="0 0 58 55" style="enable-background:new 0 0 512 512" xml:space="preserve"><g><g fill="none" fill-rule="nonzero" transform="translate(-1 -1)"><path fill="#ECF0F1" d="M51 10 38 38c-6 0-15-3-13-11 .386-1.338.564-2.728.53-4.12-.22-3.17-2.77-2.34-3.53-3.88a2.665 2.665 0 0 1-.18-1.52C22.16 14.88 25.18 10.6 33 8c7.23-2.41 12.52.34 16.39-1.59A12.131 12.131 0 0 1 51 10z" opacity="1" data-original="#ecf0f1"></path><path fill="#2FA8CC" d="M49.39 6.41C45.52 8.34 40.23 5.59 33 8c-7.82 2.6-10.84 6.88-11.18 9.48-3.07-.4-7.02.98-11.82 8.52-7 11-5 26-5 26a3.663 3.663 0 0 1-4-4V32C1 11 29 1 39 1a11.672 11.672 0 0 1 10.39 5.41z" opacity="1" data-original="#2fa8cc"></path><path fill="#F0C419" d="M29 54c-2 2-5 1-5 1a10.343 10.343 0 0 1-4 1 10.343 10.343 0 0 1-4-1c-4 1-6-1-6-1-4 1-5-2-5-2s-2-15 5-26c4.8-7.54 8.75-8.92 11.82-8.52A2.665 2.665 0 0 0 22 19c.76 1.54 3.31.71 3.53 3.88C22.64 24.27 17 26.56 17 34c0 11 7 17 12 20z" opacity="1" data-original="#f0c419"></path><path fill="#4FBA6F" d="M37 49c-4-2-2 4-2 4-1 4-6 1-6 1-5-3-12-9-12-20 0-7.44 5.64-9.73 8.53-11.12A13.661 13.661 0 0 1 25 27c-2 8 7 11 13 11 6 7-1 11-1 11z" opacity="1" data-original="#4fba6f"></path><path fill="#35495E" d="M59 24c0-9-8-14-8-14a147.3 147.3 0 0 0-10 12c-3 5-3 16-3 16s10.2 1.85 16.31-6.94c1.52 4.05-1.13 9.56-1.29 9.92C53.37 40.5 59 32.72 59 24z" opacity="1" data-original="#35495e"></path><path fill="#2C3E50" d="M54.31 31.06C48.2 39.85 38 38 38 38s0-11 3-16a27.64 27.64 0 0 1 6 6c3 4 6 1 6 1a5.683 5.683 0 0 1 1.31 2.06z" opacity="1" data-original="#2c3e50"></path><circle cx="34" cy="14" r="3" fill="#3F5C6C" opacity="1" data-original="#3f5c6c"></circle><circle cx="34" cy="14" r="2" fill="#D1D4D1" opacity="1" data-original="#d1d4d1"></circle><circle cx="34" cy="14" r="1" fill="#35495E" opacity="1" data-original="#35495e"></circle></g></g></svg>