<svg xmlns="http://www.w3.org/2000/svg" version="1.1" xmlns:xlink="http://www.w3.org/1999/xlink" width="512" height="512" x="0" y="0" viewBox="0 0 120 120" style="enable-background:new 0 0 512 512" xml:space="preserve"><g><path fill="#005513" d="M68.588 43.927a2 2 0 0 0-2-1.927H53.473a2 2 0 0 0-1.998 1.925l-2.396 64A2 2 0 0 0 51.076 110h17.85a2 2 0 0 0 1.998-2.073z" opacity="1" data-original="#005513"></path><path fill="#099718" d="M60.006 52.559 73.721 64.25a1 1 0 0 0 .649.239h4.167a1 1 0 0 1 1 1v4.922a1 1 0 0 0 .343.753l14.886 12.998c.484.423 1.233.29 1.515-.288 7.097-14.597 8.574-44.538-27.372-44.538 1.336-2.386 7.897-3.148 9.987-3.333.392-.034.732-.285.872-.653l1.515-3.966a1 1 0 0 1 1.442-.504l5.723 3.374c.289.17.636.186.945.055 1.68-.713 5.138-1.83 8.749-2.996 5.424-1.752 11.195-3.615 11.805-4.39.055-.07.042-.163.018-.25-2.028-7.15-11.366-19.256-30.428-16.184-10.23 1.648-16.1 6.624-19.54 12.43-3.44-5.801-9.31-10.772-19.534-12.42-19.062-3.072-28.4 9.034-30.428 16.185-.024.086-.037.18.018.25.61.774 6.38 2.638 11.805 4.39 3.61 1.166 7.068 2.282 8.749 2.996.309.13.656.115.945-.056l5.723-3.374a1 1 0 0 1 1.442.505l1.515 3.966c.14.367.48.618.872.653 2.09.184 8.651.946 9.987 3.332-35.946 0-34.469 29.941-27.372 44.539.281.578 1.031.71 1.515.288L40.12 71.176a1 1 0 0 0 .343-.754V65.5a1 1 0 0 1 1-1h4.167a1 1 0 0 0 .649-.239z" opacity="1" data-original="#099718"></path><path fill="#502701" fill-rule="evenodd" d="M31 105.5a4.5 4.5 0 0 1 4.5-4.5h49a4.5 4.5 0 0 1 0 9h-49a4.5 4.5 0 0 1-4.5-4.5z" clip-rule="evenodd" opacity="1" data-original="#502701"></path></g></svg>